<svg xmlns="http://www.w3.org/2000/svg" width="100" height="100" viewBox="0 0 100 100">
    <g fill="none" fill-rule="evenodd">
        <g>
            <g>
                <g>
                    <path fill="#3A3B38" d="M0 49.335C0 22.087 22.089 0 49.336 0l.066 49.266c0 27.248-22.087 49.336-49.336 49.336L0 49.335" transform="translate(-100.000000, -414.000000) translate(100.000000, 369.000000) translate(0.000000, 45.000000)"/>
                    <path fill="#A0D1C5" d="M49.402 49.282V0c27.25 0 49.336 22.087 49.336 49.335l-49.336-.053" transform="translate(-100.000000, -414.000000) translate(100.000000, 369.000000) translate(0.000000, 45.000000)"/>
                    <path fill="#FFFFFE" d="M36.116 20.806c1.671 0 3.026 1.356 3.026 3.027s-1.355 3.026-3.026 3.026c-1.67 0-3.026-1.355-3.026-3.026 0-1.671 1.355-3.027 3.026-3.027" transform="translate(-100.000000, -414.000000) translate(100.000000, 369.000000) translate(0.000000, 45.000000)"/>
                    <path fill="#E7C229" d="M36.117 35.46c-6.422 0-11.628-5.206-11.628-11.627 0-6.422 5.206-11.63 11.628-11.63 6.42 0 11.626 5.208 11.626 11.63 0 6.42-5.206 11.626-11.626 11.626zm-.001-25.431c-7.624 0-13.804 6.18-13.804 13.804 0 7.621 6.18 13.804 13.804 13.804 7.622 0 13.802-6.183 13.802-13.804 0-7.624-6.18-13.804-13.802-13.804z" transform="translate(-100.000000, -414.000000) translate(100.000000, 369.000000) translate(0.000000, 45.000000)"/>
                    <path fill="#E7C229" d="M33.241 38.56c.048.46-.079.968-.508 1.214-.385.221-.998-.218-1.237-.488-.393-.449-.432-1.044-.133-1.546.206-.344.587-.624.992-.515.656.17.843.947.886 1.528.307-.082.612-.163.92-.248-.539-1.482-1.967-1.519-3.236-.923-.093.042-.305.212-.105.271.208.066.46-.019.646-.105.848-.4 1.498.237 1.775 1.005.086.238.939.004.92-.248-.076-.993-.577-1.727-1.627-1.725-.838 0-1.748.483-2.148 1.228-.518.964.324 1.959 1.254 2.174 1.208.283 2.66-.531 2.52-1.87-.023-.212-.948-.027-.919.247" transform="translate(-100.000000, -414.000000) translate(100.000000, 369.000000) translate(0.000000, 45.000000)"/>
                    <path fill="#E7C229" d="M32.125 39.55C42.783 58.901 17.83 75.827.066 75.827c-.052 0 .009.133-.018.273-.02.114-.015 1.092 0 1.092 18.028 0 44.83-18.29 33.135-37.93-.177-.297-1.176.086-1.058.286" transform="translate(-100.000000, -414.000000) translate(100.000000, 369.000000) translate(0.000000, 45.000000)"/>
                </g>
            </g>
        </g>
    </g>
</svg>
